<svg xmlns="http://www.w3.org/2000/svg" xmlns:xlink="http://www.w3.org/1999/xlink" width="32" height="32" viewBox="0 0 32 32">
  <defs>
    <linearGradient id="linear-gradient" x1="0.5" x2="0.5" y2="1" gradientUnits="objectBoundingBox">
      <stop offset="0" stop-color="#d8a2ff"/>
      <stop offset="1" stop-color="#a251dc"/>
    </linearGradient>
  </defs>
  <g id="Group_3053" data-name="Group 3053" transform="translate(-391 -208)">
    <rect id="Rectangle_410" data-name="Rectangle 410" width="32" height="32" rx="9" transform="translate(391 208)" fill="url(#linear-gradient)"/>
    <path id="Icon_awesome-linkedin-in" data-name="Icon awesome-linkedin-in" d="M3.817,17.054H.282V5.668H3.817ZM2.048,4.115A2.057,2.057,0,1,1,4.1,2.048,2.065,2.065,0,0,1,2.048,4.115Zm15,12.938H13.522V11.511c0-1.321-.027-3.015-1.838-3.015-1.838,0-2.12,1.435-2.12,2.92v5.637H6.032V5.668H9.423V7.221h.049a3.715,3.715,0,0,1,3.345-1.839c3.578,0,4.236,2.356,4.236,5.417v6.254Z" transform="translate(398 214.999)" fill="#fff"/>
  </g>
</svg>
